<svg width="36" height="36" viewBox="0 0 500 500" fill="none" xmlns="http://www.w3.org/2000/svg">
<path d="M256.626 132H179.324C177.382 132 175.519 132.772 174.145 134.145C172.772 135.519 172 137.382 172 139.324V384.593C172.02 385.209 172.199 385.808 172.52 386.334C172.841 386.86 173.292 387.293 173.831 387.593C174.369 387.892 174.976 388.046 175.592 388.041C176.208 388.036 176.811 387.871 177.345 387.562L220.895 361.63C223.265 360.228 225.224 358.228 226.579 355.831C227.934 353.434 228.636 350.724 228.616 347.971C228.616 342.23 228.616 316.694 228.616 310.953V281.953H256.626C322.546 281.953 355.605 254.436 355.605 207.026C355.605 159.615 322.447 132 256.626 132ZM250.589 268.986H228.714V144.966H250.589C287.409 144.966 295.03 180.797 295.03 207.026C295.03 233.255 287.31 268.986 250.49 268.986H250.589Z" fill="#023336"/>
</svg>
